<?xml version="1.0" standalone="no"?>
<!DOCTYPE svg PUBLIC "-//W3C//DTD SVG 20010904//EN"
 "http://www.w3.org/TR/2001/REC-SVG-20010904/DTD/svg10.dtd">
<svg version="1.0" xmlns="http://www.w3.org/2000/svg"
 width="600.000000pt" height="600.000000pt" viewBox="0 0 600.000000 600.000000"
 preserveAspectRatio="xMidYMid meet">
<metadata>
Created by potrace 1.11, written by Peter Selinger 2001-2013
</metadata>
<g transform="translate(0.000000,600.000000) scale(0.100000,-0.100000)"
fill="#000000" stroke="none">
<path d="M2725 5404 c-112 -22 -244 -93 -330 -178 -125 -124 -177 -245 -179
-416 -1 -180 58 -315 193 -442 255 -238 667 -238 922 0 135 127 194 262 193
442 -2 171 -54 292 -179 416 -158 157 -390 224 -620 178z"/>
<path d="M665 4256 c-111 -51 -165 -132 -165 -246 0 -109 51 -189 151 -241 91
-46 1013 -226 1419 -277 l145 -18 -2 -250 c-6 -696 -74 -1300 -193 -1721 -48
-172 -102 -318 -198 -543 -72 -167 -75 -179 -76 -255 -1 -66 3 -88 23 -125 32
-61 86 -116 146 -148 45 -24 60 -27 155 -27 95 0 110 3 155 27 59 31 115 87
143 143 34 69 143 334 197 480 84 227 150 477 196 747 l23 128 86 0 86 0 23
-128 c63 -367 145 -640 311 -1037 83 -199 101 -233 147 -276 71 -69 114 -84
233 -84 95 0 110 3 155 27 60 32 114 87 146 148 19 37 24 60 23 125 0 76 -4
88 -63 225 -143 330 -225 581 -280 863 -76 389 -119 887 -124 1431 l-2 250
145 18 c406 51 1328 231 1419 277 100 52 151 132 151 241 0 114 -54 195 -165
246 -71 34 -148 31 -338 -11 -1355 -299 -1996 -328 -3037 -140 -164 30 -594
117 -744 150 -141 32 -225 32 -291 1z"/>
</g>
</svg>
