
<svg version="1.1"
	 xmlns="http://www.w3.org/2000/svg"
	 viewBox="0 0 100 100">
<g>
	<path d="M87,62.4c-1.7,5.4-4.7,10.2-8.5,14.2c-0.6,0.6-1.5,0.8-2.3,0.3l-6.7-3.7c-2.8,2.3-6,4.1-9.5,5.3V86c0,0.8-0.6,1.6-1.5,1.8
		c-5.5,1.2-11.3,1.2-17.1,0C40.6,87.6,40,86.8,40,86v-7.4c-3.5-1.2-6.7-3-9.5-5.3L23.9,77c-0.8,0.4-1.7,0.3-2.3-0.3
		c-3.9-4-6.8-8.9-8.5-14.2c-0.3-0.8,0.1-1.7,0.9-2.1l6.7-3.7c-0.7-3.5-0.7-7.1,0-10.6l-6.7-3.7c-0.8-0.4-1.1-1.3-0.9-2.1
		c1.7-5.4,4.7-10.2,8.5-14.2c0.6-0.6,1.5-0.8,2.3-0.3l6.6,3.7c2.8-2.3,6-4.1,9.5-5.3v-7.4c0-0.8,0.6-1.6,1.5-1.8
		c5.5-1.2,11.3-1.2,17.1,0c0.9,0.2,1.5,0.9,1.5,1.8v7.4c3.5,1.2,6.7,3,9.5,5.3l6.7-3.7c0.8-0.4,1.7-0.3,2.3,0.3
		c3.9,4,6.8,8.9,8.5,14.2c0.3,0.8-0.1,1.7-0.9,2.1L79.5,46c0.7,3.5,0.7,7.1,0,10.6l6.7,3.7C86.9,60.7,87.3,61.6,87,62.4z M62.5,51.3
		c0-6.6-5.6-12-12.5-12c-6.9,0-12.5,5.4-12.5,12s5.6,12,12.5,12C56.9,63.4,62.5,58,62.5,51.3z"/>
</g>
</svg>
