
<svg version="1.1"
	 xmlns="http://www.w3.org/2000/svg"
	 viewBox="0 0 100 100" >
<g>
	<path d="M90,52c0,0.4-0.2,0.9-0.4,1.1l-3.5,4.7c-0.3,0.4-0.9,0.7-1.3,0.7c-0.3,0-0.8-0.2-1.1-0.4L51.1,28.9
		c-0.3-0.2-0.7-0.4-1.1-0.4c-0.3,0-0.8,0.2-1.1,0.4L16.3,58.1c-0.3,0.2-0.7,0.4-1.1,0.4c-0.4,0-1-0.3-1.3-0.7l-3.5-4.7
		C10.2,52.9,10,52.4,10,52c0-0.5,0.3-1.1,0.6-1.4l35.2-31.4c1-0.9,2.9-1.6,4.2-1.6c1.3,0,3.2,0.7,4.2,1.6l12.4,11.1V19.4
		c0-1,0.7-1.8,1.7-1.8h7.8c0.9,0,1.7,0.8,1.7,1.8v20.8l11.6,10.4C89.7,50.9,90,51.6,90,52z M50,34.7c0.3,0,0.8,0.2,1.1,0.4
		l25.6,22.8v24.7c0,1.3-1,2.4-2.2,2.4l-15.6,0c-1.2,0-2.2-1.1-2.2-2.4c0,0,0,0,0,0V68.2c0-1.3-1-2.4-2.2-2.4h-8.9
		c-1.2,0-2.2,1.1-2.2,2.4v14.4c0,1.3-1,2.4-2.2,2.4l-15.6,0c-1.2,0-2.2-1.1-2.2-2.4V58l25.6-22.9C49.2,34.9,49.7,34.7,50,34.7z"/>
</g>
</svg>
