
<svg version="1.1"
	 xmlns="http://www.w3.org/2000/svg"
	 viewBox="0 0 100 100">
<g>
	<path d="M70.3,59.9c0.7-0.8,1.9-0.2,1.9,0.9v21.9c0,4-3,7.2-6.7,7.2H16.7c-3.7,0-6.7-3.2-6.7-7.2v-53c0-4,3-7.2,6.7-7.2h38
		c1,0,1.5,1.3,0.8,2.1L51,29.3c-0.2,0.2-0.5,0.3-0.8,0.3H16.7v53h48.9V65.5c0-0.3,0.1-0.6,0.3-0.8L70.3,59.9z M51.2,73.9l-12.6,1.5
		c-3.6,0.4-6.7-2.9-6.3-6.9l1.4-13.6l36.5-39.5c3.2-3.4,8.3-3.4,11.5,0l6,6.5c3.2,3.4,3.2,9,0,12.5L51.2,73.9z M65.8,30.2L40,58.2
		L39,68l9.1-1.1l25.8-28L65.8,30.2z M76.9,20.5c-0.6-0.6-1.5-0.6-2.1,0l-4.3,4.7l8.1,8.7l4.3-4.7c0.6-0.6,0.6-1.6,0-2.2L76.9,20.5z"
		/>
</g>
</svg>
