
<svg version="1.1"
	 xmlns="http://www.w3.org/2000/svg"
	 viewBox="0 0 100 100">
<g>
	<path d="M88.8,51.3c0,20.6-17.3,37.3-38.8,37.3S11.2,71.9,11.2,51.3S28.6,14,50,14S88.8,30.7,88.8,51.3z M17.5,51.3
		C17.5,68.6,32,82.6,50,82.6c18,0,32.5-14,32.5-31.3C82.5,34,68,20,50,20C32,20,17.5,34,17.5,51.3z M80,51.3c0,16-13.4,28.9-30,28.9
		S20,67.3,20,51.3c0-16,13.4-28.9,30-28.9S80,35.4,80,51.3z M70.3,40.9c-0.3-1.3-1.7-2.1-3-1.8c-15.1,3.4-19.4,3.4-34.5,0
		c-1.3-0.3-2.7,0.5-3,1.8s0.5,2.6,1.9,2.9c4.5,1,8.7,1.9,12.8,2.4c-0.1,15.2-1.9,18.5-3.9,23.4c-0.6,1.4,0.1,3,1.6,3.5
		c1.4,0.5,3.1-0.1,3.6-1.5c1.4-3.4,2.7-6.1,3.5-11.8h1.5c0.8,5.7,2.1,8.5,3.5,11.8c0.6,1.4,2.2,2.1,3.6,1.5c1.4-0.5,2.2-2.1,1.6-3.5
		c-2-4.9-3.8-8.2-3.9-23.4c4.2-0.5,8.3-1.4,12.8-2.4C69.7,43.5,70.6,42.2,70.3,40.9z M44.4,34.5c0,3,2.5,5.4,5.6,5.4
		c3.1,0,5.6-2.4,5.6-5.4S53.1,29,50,29C46.9,29,44.4,31.5,44.4,34.5z"/>
</g>
</svg>
